<svg width="67" height="13" viewBox="0 0 67 13" fill="none" xmlns="http://www.w3.org/2000/svg">
<rect opacity="0.5" x="40.0111" y="0.996784" width="22.9868" height="10.494" rx="1.49914" stroke="black" stroke-width="0.999426"/>
<path d="M41.5104 2.99581C41.5104 2.71982 41.7342 2.49609 42.0102 2.49609H57.5013V9.99179H42.0102C41.7342 9.99179 41.5104 9.76806 41.5104 9.49208V2.99581Z" fill="black"/>
<path opacity="0.5" d="M64.4973 4.49512V4.49512C65.3252 4.49512 65.9964 5.1663 65.9964 5.99426V6.49397C65.9964 7.32192 65.3252 7.99311 64.4973 7.99311V7.99311V4.49512Z" fill="black"/>
<path fill-rule="evenodd" clip-rule="evenodd" d="M30.5199 8.26084C29.9675 7.80724 29.2563 7.49316 28.4789 7.49316C27.703 7.49316 26.9928 7.80675 26.4404 8.25841L28.4789 10.4914L30.5199 8.26084V8.26084ZM28.468 6.01414C29.6265 6.01414 30.6848 6.43603 31.5011 7.13097L32.4932 6.03188C31.4134 5.10233 30.009 4.49512 28.468 4.49512C26.9301 4.49512 25.5266 5.10085 24.4478 6.02744L25.4384 7.12802C26.2542 6.43455 27.3111 6.01414 28.468 6.01414V6.01414ZM28.4293 3.01707C30.3621 3.01707 32.1237 3.73124 33.4744 4.90229L34.4122 3.86382C32.8125 2.47098 30.7232 1.49707 28.4293 1.49707C26.1388 1.49707 24.0525 2.46802 22.4548 3.85643L23.3906 4.89638C24.7403 3.72878 26.4989 3.01707 28.4293 3.01707V3.01707Z" fill="black"/>
<path d="M3.52063 6.49414C3.79661 6.49414 4.02063 6.71816 4.02063 6.99414V10.4922C4.02045 10.768 3.7965 10.9912 3.52063 10.9912H1.53137C1.2555 10.9912 1.03156 10.768 1.03137 10.4922V6.99414C1.03137 6.71816 1.25539 6.49414 1.53137 6.49414H3.52063ZM8.005 4.99512C8.28099 4.99512 8.505 5.21913 8.505 5.49512V10.4922C8.50488 10.7681 8.28091 10.9912 8.005 10.9912H6.01477C5.73909 10.9909 5.51587 10.7679 5.51575 10.4922V5.49512C5.51575 5.2193 5.73901 4.99538 6.01477 4.99512H8.005ZM12.4884 2.99609C12.7644 2.99609 12.9884 3.22011 12.9884 3.49609V10.4922C12.9882 10.768 12.7643 10.9912 12.4884 10.9912H10.4991C10.2233 10.9912 9.99936 10.768 9.99915 10.4922V3.49609C9.99915 3.22011 10.2232 2.99609 10.4991 2.99609H12.4884ZM16.9728 0.99707C17.2488 0.99707 17.4728 1.22109 17.4728 1.49707V10.4912C17.4728 10.7672 17.2488 10.9912 16.9728 10.9912H14.9835C14.7075 10.9912 14.4835 10.7672 14.4835 10.4912V1.49707C14.4835 1.22109 14.7075 0.99707 14.9835 0.99707H16.9728Z" fill="black"/>
</svg>